# xmcd
#
# Track frame offsets:
#	150
#	10743
#	27623
#	46098
#	64878
#	83980
#	99440
#	119445
#	137925
#	157873
#
# Disc length: 2337 seconds
#
# Revision: 0
# Processed by: cddbd v1.5.1PL2 Copyright (c) Steve Scherf et al.
# Submitted via: dBpowerAMP V4.0
#
DISCID=7d091f0a
DTITLE=Jon Amor - Unknown Soldier
DYEAR=1900
DGENRE=Blues Rock
TTITLE0=If You Were Me (And I Were You)
TTITLE1=Ball And Chain
TTITLE2=Headspin
TTITLE3=Lost
TTITLE4=In The Devil's Back Yard
TTITLE5=Meet Again
TTITLE6=Unknown Soldier
TTITLE7=Drowning
TTITLE8=Free My Way
TTITLE9=19 New Park Street
EXTD=Produced and recorded by Stephen Evans\nRecorded and mixed at Riverside Studios, Bath, England
EXTT0=
EXTT1=
EXTT2=
EXTT3=
EXTT4=
EXTT5=
EXTT6=
EXTT7=
EXTT8=
EXTT9=
PLAYORDER=
